<svg width="16" height="16" viewBox="0 0 16 16" fill="none" xmlns="http://www.w3.org/2000/svg">
<path fill-rule="evenodd" clip-rule="evenodd" d="M10.4089 0.257778L15.7422 5.59111C15.9086 5.75886 16.0014 5.98595 16 6.22222V13.3333C16 14.8061 14.8061 16 13.3333 16H2.66667C1.19391 16 0 14.8061 0 13.3333V2.66667C0 1.19391 1.19391 0 2.66667 0H9.77778C9.89672 0.00222051 10.0142 0.0263262 10.1244 0.0711111C10.2304 0.114438 10.327 0.177821 10.4089 0.257778ZM8.88889 1.77778H5.33333V3.55556H8.88889V1.77778ZM10.6667 14.2222H5.33333V11.5556C5.33333 11.0646 5.7313 10.6667 6.22222 10.6667H9.77778C10.2687 10.6667 10.6667 11.0646 10.6667 11.5556V14.2222ZM13.3333 14.2222C13.8243 14.2222 14.2222 13.8243 14.2222 13.3333V6.58667L10.6667 3.03111V4.44444C10.6667 4.93536 10.2687 5.33333 9.77778 5.33333H4.44444C3.95352 5.33333 3.55556 4.93536 3.55556 4.44444V1.77778H2.66667C2.17575 1.77778 1.77778 2.17575 1.77778 2.66667V13.3333C1.77778 13.8243 2.17575 14.2222 2.66667 14.2222H3.55556V11.5556C3.55556 10.0828 4.74946 8.88889 6.22222 8.88889H9.77778C11.2505 8.88889 12.4444 10.0828 12.4444 11.5556V14.2222H13.3333Z" fill="white"/>
</svg>
